<svg id="Layer_1" data-name="Layer 1" xmlns="http://www.w3.org/2000/svg" viewBox="0 0 219.52 223.19"><defs><style>.cls-1{fill:#009245;}.cls-1,.cls-3,.cls-4,.cls-6,.cls-7{stroke:#000;stroke-width:5px;}.cls-1,.cls-6,.cls-7{stroke-linecap:round;}.cls-1,.cls-7{stroke-linejoin:round;}.cls-2,.cls-6,.cls-7{fill:#39b54a;}.cls-3,.cls-5{fill:#fff;}.cls-3,.cls-4,.cls-6{stroke-miterlimit:10;}.cls-4{fill:#29abe2;}</style></defs><title>monster-1</title><path class="cls-1" d="M807.15,420.33s12.13-.9,12.14-11.94-4.61-15.48-21.54-17-43.9-14.06-56.46-41.32-12.09-65.38-12.09-65.38S710,308,710,330.08s13,33.33,13,33.33-5.79-2.54-13-11.24-8.67-25.9-8.67-25.9-9.62,28.24-1.21,46.08S716,395.91,716,395.91s-7.15,1.35-13.58-5.26-12.48-17.21-12.48-17.21,5.5,38.66,23,55.33,32.76,26.1,50,24.66,26-9.67,26-9.67" transform="translate(-647.41 -282.15)"/><path class="cls-2" d="M780.51,502.84a73.18,73.18,0,0,1-13.22-1.21,72.51,72.51,0,0,1,13-143.81A73.17,73.17,0,0,1,793.56,359a72.51,72.51,0,0,1-13,143.81Z" transform="translate(-647.41 -282.15)"/><path d="M780.35,355.32v5h0a70.63,70.63,0,0,1,12.76,1.17,70,70,0,0,1-12.6,138.85,70.66,70.66,0,0,1-12.77-1.17,70,70,0,0,1,12.6-138.85v-5m0,0A75.07,75.07,0,1,0,794,356.57a75,75,0,0,0-13.67-1.25Z" transform="translate(-647.41 -282.15)"/><circle class="cls-3" cx="831.26" cy="438.68" r="27.5" transform="translate(-398.17 894.55) rotate(-79.56)"/><circle class="cls-4" cx="839.37" cy="440.17" r="19.25" transform="translate(-393 903.76) rotate(-79.56)"/><path d="M839.35,447a6.75,6.75,0,0,1-1.22-.11,6.87,6.87,0,0,1,1.26-13.62,6.74,6.74,0,0,1,5.57,3A6.9,6.9,0,0,1,839.35,447Z" transform="translate(-647.41 -282.15)"/><path d="M839.39,434.36h0a5.72,5.72,0,0,1,1,.09,5.66,5.66,0,0,1,3.67,2.4,5.85,5.85,0,0,1-4.75,9.14,5.72,5.72,0,0,1-1-.09,5.82,5.82,0,0,1,1.08-11.54m0-2.1a7.92,7.92,0,0,0-1.45,15.7,7.79,7.79,0,0,0,1.41.13,7.92,7.92,0,0,0,1.45-15.7,7.79,7.79,0,0,0-1.41-.13Z" transform="translate(-647.41 -282.15)"/><circle class="cls-5" cx="832.16" cy="441.74" r="3.23" transform="translate(-400.45 897.95) rotate(-79.56)"/><path d="M805.11,479.16c6.47-1.3,9.84,2.14,11.23,3-1-7.15-7.44-12.24-16.69-13.95-11-2-22.32-.6-23.92,8.06s7.64,12.62,15.32,11.55S798.64,480.46,805.11,479.16Z" transform="translate(-647.41 -282.15)"/><path class="cls-6" d="M831.21,397.06l20.37,10.87c9.24,4.09,16,16.74,11.35,27.22h0l-59.2-26.89" transform="translate(-647.41 -282.15)"/><path class="cls-7" d="M776,420.18s11.53-3.88,8.79-14.58-8.31-13.85-25.09-11.15-46-2.71-65-26-28-60.32-28-60.32-12.81,27.39-7.33,48.79,20.89,29,20.89,29-6.24-1-15.41-7.64-14.84-22.93-14.84-22.93-2.3,29.74,10.28,44.94,21.27,18.86,21.27,18.86-6.59,3.09-14.46-1.72-16.37-13.57-16.37-13.57,14.93,36.08,36.08,47.87,38.21,17.14,54.52,11.47,22.77-15.83,22.77-15.83" transform="translate(-647.41 -282.15)"/></svg>